<?xml version="1.0" encoding="UTF-8"?><svg id="Layer_1" xmlns="http://www.w3.org/2000/svg" viewBox="0 0 778.13 732.88"><defs><style>.cls-1{fill:#d83237;}.cls-2{fill:#3049a1;}</style></defs><path class="cls-1" d="M776.88,282.9c-18.97-23.51-68.06-81.44-96.59-88.63-45.87-11.56-129.77,5.7-194.29,32.15,14.21-37.2,35.88-80.91,91.29-111.83,22.3-12.45-58.9-65.46-82.25-80.2-3.13-1.97-4.12-5.96-2.44-9.14-4.68,3.91-8.51,7.62-10.93,10.77-36.07,47.18-72.9,163.69-85.22,221.82-.47,2.18-.89,4.47-1.29,6.86,.84-.6,1.79-1.16,2.78-1.68,12.22,7.83,18.23,25.43,28.34,36.62,.6,0,1.18,.03,1.73,.03,1.87,2.13,3.81,4.26,5.78,6.33,13.19,7.96,40.3,8.91,53.01,17.08-.76,16.55-16.97,25.03-18.78,49.18-1.18,16.29,14.95,32.65,14.19,48.97-14.13,7.3-39.67,.68-56.79,10.03-14.89,8.14-23.06,30.71-38.14,38.51-.58-.37-1.13-.76-1.65-1.18-18.47,128.06-58.19,172.22-97.7,234.56,.29,1.71-.05,3.49-1.08,5.04l-10.77,16.02c-2.68,4.05,.68,9.35,5.46,8.62,29.87-4.7,104.58-18.26,125.07-39.35,30.87-31.81,56.53-105.29,67.33-171.25,26.43,31.71,57.5,73.45,56.51,141.38-.37,25.56,86.16-18.23,110.57-31.1,3.49-1.84,7.8-.45,9.54,3.1l8.54,17.34c2.13,4.36,8.41,4.1,10.17-.45,10.88-28.19,36.49-99.67,28.45-127.96-11.48-40.43-57.69-95.49-106.52-137.15,38.35-5.86,81.75-5.1,125.91,21.28,21.96,13.11,27.29-83.75,28.34-111.33,.16-3.94,3.52-6.96,7.46-6.7l19.28,1.29c4.83,.32,7.75-5.25,4.7-9.01Z"/><path class="cls-2" d="M504.6,6.62c-.08,.37-.21,.74-.34,1.08-.11,.34-.29,.66-.5,.97l-10.77,16.05c-.05,.08-.11,.18-.16,.29-.11,.11-.16,.24-.21,.37-4.68,3.91-8.51,7.62-10.93,10.77-36.07,47.18-72.9,163.69-85.22,221.82-.47,2.18-.89,4.47-1.29,6.86-10.95,7.64-10.98,21.46-37.12,35.57-8.54,4.6-19.1,5.12-29.4,6.09-7.15,.66-14.16,1.55-20.36,4.2-.76,.32-1.55,.66-2.29,1.05-.42,8.96,3.26,18.89,6.36,28.69,2.36,7.43,4.41,14.82,4.1,21.65-.37,7.96-3.73,16.05-7.28,24.17-4.05,9.3-8.38,18.6-8.8,27.71,7.93,5.1,19.33,7.25,30.5,9.61,1.84,.39,3.7,.79,5.52,1.21,1.76,.39,3.49,.81,5.18,1.26,5.81,1.52,11.19,3.44,15.55,6.23,.55,.34,1.08,.71,1.58,1.13,11.11,8.46,15.84,26.79,26.93,35.31-18.47,128.06-58.19,172.22-97.7,234.56-.05-.24-.11-.47-.16-.71-.11-.45-.26-.87-.5-1.29-.42-.84-1-1.63-1.76-2.23-.24-.21-.47-.39-.74-.55-23.35-14.71-104.55-67.75-82.25-80.2,54.61-30.47,76.47-73.4,90.68-110.25-64.65,26.69-149.26,44.24-195.39,32.6-28.53-7.17-77.63-65.1-96.59-88.61-3.05-3.78-.13-9.35,4.7-9.04l19.28,1.29c2.73,.18,5.23-1.23,6.51-3.47,.24-.37,.42-.79,.55-1.21,.11-.32,.21-.66,.26-.97,.05-.16,.05-.34,.08-.53,.03-.16,.03-.34,.05-.53,.08-2.02,.18-4.41,.29-7.09,.08-1.63,.18-3.34,.26-5.18,.08-1.21,.16-2.44,.21-3.73,.16-2.6,.34-5.31,.53-8.14,.16-2.13,.32-4.33,.47-6.57,.13-1.5,.24-3.02,.37-4.54,.18-2.29,.39-4.62,.63-6.99,.21-2.34,.45-4.73,.71-7.12,.08-.79,.18-1.58,.26-2.36,.18-1.6,.37-3.2,.55-4.78,.11-.79,.21-1.6,.32-2.39,.21-1.58,.42-3.15,.63-4.73,4.1-29.21,11.11-54.85,23.09-47.71,49.62,29.63,94.44,29.71,131.74,24.72-49.89-41.98-97.67-98.38-109.39-139.6-8.04-28.29,17.57-99.77,28.45-127.96,1.76-4.54,8.04-4.81,10.17-.45l8.51,17.34c.16,.32,.32,.6,.53,.89,.18,.29,.42,.55,.63,.76,2.08,2.29,5.52,2.97,8.41,1.44,24.4-12.87,110.94-56.66,110.57-31.1-.97,66.7,28.98,108.18,55.06,139.67,10.69-66.33,36.49-140.52,67.57-172.54C393.74,18.31,468.45,4.75,498.29,.07c1.94-.32,3.65,.39,4.83,1.63,.13,.13,.26,.26,.37,.39,.24,.29,.42,.58,.58,.89,.58,1.1,.79,2.36,.53,3.63Z"/></svg>